<?xml version="1.0" standalone="no"?><!-- Generator: Gravit.io --><svg xmlns="http://www.w3.org/2000/svg" xmlns:xlink="http://www.w3.org/1999/xlink" style="isolation:isolate" viewBox="100.00000000000003 14.999999999999986 460 251" width="460" height="251"><rect x="100.00000000000003" y="14.999999999999986" width="460" height="251" transform="matrix(1,0,0,1,0,0)" fill="rgb(129,199,132)" stroke-width="1" stroke="rgba(0,0,0,0)" stroke-linejoin="miter" stroke-linecap="square"/><rect x="123.50000000000006" y="33.12000000000003" width="412.99999999999994" height="214.75999999999993" transform="matrix(1,0,0,1,0,0)" fill="none" stroke="none"/><mask id="_mask_OxPVLLOtBlOoJ19jTtexyFNEdDmLqzTW" x="-200%" y="-200%" width="400%" height="400%"><rect x="0" y="0" width="100%" height="100%" style="fill:white;"/><rect x="123.50000000000006" y="33.12000000000003" width="412.99999999999994" height="214.75999999999993" transform="matrix(1,0,0,1,0,0)" fill="black" stroke="none"/></mask><rect x="123.50000000000006" y="33.12000000000003" width="412.99999999999994" height="214.75999999999993" transform="matrix(1,0,0,1,0,0)" fill="none" stroke="rgb(76,175,80)" stroke-width="22" stroke-linejoin="miter" stroke-linecap="square" mask="url(#_mask_OxPVLLOtBlOoJ19jTtexyFNEdDmLqzTW)"/><rect rx="9.96094653346401" ry="9.96094653346401" x="113.49999999999997" y="24.000000000000043" width="47" height="34" transform="matrix(1,0,0,1,0,0)" fill="rgb(76,175,80)" stroke="none"/><mask id="_mask_Lr49tlTSx2rAhUZ5f0EfatlhL8acHe9Y" x="-200%" y="-200%" width="400%" height="400%"><rect x="0" y="0" width="100%" height="100%" style="fill:white;"/><rect rx="9.96094653346401" ry="9.96094653346401" x="113.49999999999997" y="24.000000000000043" width="47" height="34" transform="matrix(1,0,0,1,0,0)" fill="black" stroke="none"/></mask><rect rx="9.96094653346401" ry="9.96094653346401" x="113.49999999999997" y="24.000000000000043" width="47" height="34" transform="matrix(1,0,0,1,0,0)" fill="none" stroke="rgb(76,175,80)" stroke-width="0" stroke-linejoin="miter" stroke-linecap="square" mask="url(#_mask_Lr49tlTSx2rAhUZ5f0EfatlhL8acHe9Y)"/><rect rx="9.96094653346401" ry="9.96094653346401" x="499.5" y="24.000000000000043" width="47" height="34" transform="matrix(1,0,0,1,0,0)" fill="rgb(76,175,80)" stroke="none"/><mask id="_mask_L8ejOC71WvX1iVi2juCAuLKA4ZeilXdy" x="-200%" y="-200%" width="400%" height="400%"><rect x="0" y="0" width="100%" height="100%" style="fill:white;"/><rect rx="9.96094653346401" ry="9.96094653346401" x="499.5" y="24.000000000000043" width="47" height="34" transform="matrix(1,0,0,1,0,0)" fill="black" stroke="none"/></mask><rect rx="9.96094653346401" ry="9.96094653346401" x="499.5" y="24.000000000000043" width="47" height="34" transform="matrix(1,0,0,1,0,0)" fill="none" stroke="rgb(76,175,80)" stroke-width="0" stroke-linejoin="miter" stroke-linecap="square" mask="url(#_mask_L8ejOC71WvX1iVi2juCAuLKA4ZeilXdy)"/><rect rx="9.96094653346401" ry="9.96094653346401" x="113.49999999999997" y="223" width="47" height="34" transform="matrix(1,0,0,1,0,0)" fill="rgb(76,175,80)" stroke="none"/><mask id="_mask_Gzxfen8zcqTIMNvmid0Za3eO9FvvWxef" x="-200%" y="-200%" width="400%" height="400%"><rect x="0" y="0" width="100%" height="100%" style="fill:white;"/><rect rx="9.96094653346401" ry="9.96094653346401" x="113.49999999999997" y="223" width="47" height="34" transform="matrix(1,0,0,1,0,0)" fill="black" stroke="none"/></mask><rect rx="9.96094653346401" ry="9.96094653346401" x="113.49999999999997" y="223" width="47" height="34" transform="matrix(1,0,0,1,0,0)" fill="none" stroke="rgb(76,175,80)" stroke-width="0" stroke-linejoin="miter" stroke-linecap="square" mask="url(#_mask_Gzxfen8zcqTIMNvmid0Za3eO9FvvWxef)"/><rect rx="9.96094653346401" ry="9.96094653346401" x="499.5" y="223" width="47" height="34" transform="matrix(1,0,0,1,0,0)" fill="rgb(76,175,80)" stroke="none"/><mask id="_mask_VdDGyiMvBPC89yqiyKNaoIRAn5eiXuM8" x="-200%" y="-200%" width="400%" height="400%"><rect x="0" y="0" width="100%" height="100%" style="fill:white;"/><rect rx="9.96094653346401" ry="9.96094653346401" x="499.5" y="223" width="47" height="34" transform="matrix(1,0,0,1,0,0)" fill="black" stroke="none"/></mask><rect rx="9.96094653346401" ry="9.96094653346401" x="499.5" y="223" width="47" height="34" transform="matrix(1,0,0,1,0,0)" fill="none" stroke="rgb(76,175,80)" stroke-width="0" stroke-linejoin="miter" stroke-linecap="square" mask="url(#_mask_VdDGyiMvBPC89yqiyKNaoIRAn5eiXuM8)"/></svg>