<?xml version="1.0" standalone="no"?><!-- Generator: Gravit.io --><svg xmlns="http://www.w3.org/2000/svg" xmlns:xlink="http://www.w3.org/1999/xlink" style="isolation:isolate" width="100" height="100"><g style="opacity:0.5;"><g opacity="0.5"><path d=" M 50.007003125 46.49095275979796 L 65.925796465135 46.49095275979796 C 68.46913294135783 51.00630887161096 69.92218374118039 56.227990512911255 69.92218374117907 61.78967469736947 C 69.92218374118228 64.65457299442366 69.53662853836892 67.4292543840698 68.81510129054283 70.06364941567674 L 91.5 70.06364941567675 L 91.5 28.156633138558917 L 59.43616635369813 28.156633138558902 L 58.687415223355316 26.847038879898975 L 47.456148268031555 7.203124999999998 L 36.22488131268188 26.847038879898975 L 33.69281227617219 31.27572411097163 C 19.372675344083788 33.90311940971136 8.5 46.57267329518929 8.5 61.78634832795249 C 8.5 78.9015240710407 22.260394196014715 92.79687500000323 39.2093410893525 92.796875 C 53.31882632908025 92.79687500000323 65.2186258935497 83.16731550535842 68.8097768316722 70.06697578509375 L 50.00350156249999 70.06697578509375 L 50.00350156249999 46.494279129214966 L 47.45964983053156 46.494279129214966 L 24.997115919858125 46.494279129214966 L 33.69631383867218 31.279050480388626 C 35.48613454207734 30.9506621050543 37.329810012219596 30.77914802529577 39.212842651852505 30.77914802529577 C 43.00931421653992 30.779148025295783 46.645804760302944 31.47632716545879 50.00350156249999 32.75070745498781 L 50.00350156249999 28.159959507975913 L 59.43966791619813 28.159959507975913 L 69.92218374117907 46.494279129214966 L 65.929298027635 46.494279129214966 C 62.39907017696477 40.22682845927742 56.76826757743606 35.32020422578385 50.00700312500001 32.75403382440481 L 50.007003125 46.49095275979796 Z " fill="rgba(0,0,0,0)" stroke-width="5" stroke="rgb(255,255,255)" stroke-linejoin="miter" stroke-linecap="square"/></g></g></svg>